<!-- Generated by IcoMoon.io -->
<svg version="1.1" xmlns="http://www.w3.org/2000/svg" width="28" height="30" viewBox="0 0 28 30">
<title>home</title>
<path fill="#fff" d="M23.571 16.607v8.036q0 0.435-0.318 0.753t-0.753 0.318h-6.429v-6.429h-4.286v6.429h-6.429q-0.435 0-0.753-0.318t-0.318-0.753v-8.036q0-0.017 0.008-0.050t0.008-0.050l9.626-7.935 9.626 7.935q0.017 0.033 0.017 0.1zM27.305 15.452l-1.038 1.239q-0.134 0.151-0.352 0.184h-0.050q-0.218 0-0.352-0.117l-11.585-9.66-11.585 9.66q-0.201 0.134-0.402 0.117-0.218-0.033-0.352-0.184l-1.038-1.239q-0.134-0.167-0.117-0.393t0.184-0.36l12.037-10.028q0.536-0.435 1.272-0.435t1.272 0.435l4.085 3.415v-3.265q0-0.234 0.151-0.385t0.385-0.151h3.214q0.234 0 0.385 0.151t0.151 0.385v6.83l3.666 3.047q0.167 0.134 0.184 0.36t-0.117 0.393z"></path>
</svg>
