<!-- Generated by IcoMoon.io -->
<svg version="1.1" xmlns="http://www.w3.org/2000/svg" width="21" height="30" viewBox="0 0 21 30">
<title>user</title>
<path fill="#fff" d="M21.429 23.421q0 1.825-1.046 3.131t-2.52 1.306h-14.297q-1.473 0-2.52-1.306t-1.046-3.131q0-1.423 0.142-2.687t0.527-2.545 0.979-2.193 1.574-1.49 2.252-0.578q2.193 2.143 5.24 2.143t5.24-2.143q1.272 0 2.252 0.578t1.574 1.49 0.979 2.193 0.527 2.545 0.142 2.687zM17.143 8.571q0 2.662-1.883 4.545t-4.545 1.883-4.545-1.883-1.883-4.545 1.883-4.545 4.545-1.883 4.545 1.883 1.883 4.545z"></path>
</svg>
